<svg xmlns="http://www.w3.org/2000/svg" x="0px" y="0px"
width="100" height="100"
viewBox="0,0,256,256">
<defs><linearGradient x1="32.337" y1="16.5" x2="31.642" y2="46.397" gradientUnits="userSpaceOnUse" id="color-1_52146_gr1"><stop offset="0" stop-color="#70dfff"></stop><stop offset="1" stop-color="#70afff"></stop></linearGradient><linearGradient x1="32" y1="3.75" x2="32" y2="59.5" gradientUnits="userSpaceOnUse" id="color-2_52146_gr2"><stop offset="0" stop-color="#00c6ff"></stop><stop offset="1" stop-color="#0072ff"></stop></linearGradient><linearGradient x1="32" y1="13.917" x2="32" y2="48.258" gradientUnits="userSpaceOnUse" id="color-3_52146_gr3"><stop offset="0" stop-color="#70dfff"></stop><stop offset="1" stop-color="#70afff"></stop></linearGradient><linearGradient x1="32" y1="19.167" x2="32" y2="43.62" gradientUnits="userSpaceOnUse" id="color-4_52146_gr4"><stop offset="0" stop-color="#00c6ff"></stop><stop offset="1" stop-color="#0072ff"></stop></linearGradient></defs><g fill="none" fill-rule="none" stroke="none" stroke-width="1" stroke-linecap="butt" stroke-linejoin="miter" stroke-miterlimit="10" stroke-dasharray="" stroke-dashoffset="0" font-family="none" font-weight="none" font-size="none" text-anchor="none" style="mix-blend-mode: normal"><g transform="scale(4,4)"><path d="M32,26c-2.76142,0 -5,2.23858 -5,5c0,2.76142 2.23858,5 5,5c2.76142,0 5,-2.23858 5,-5c0,-2.76142 -2.23858,-5 -5,-5z" fill="url(#color-1_52146_gr1)" fill-rule="evenodd"></path><path d="M31.943,58.001c-0.499,0 -1.001,-0.013 -1.506,-0.039c-1.654,-0.106 -2.982,-1.313 -3.245,-2.936c-0.159,-0.984 -0.351,-2.171 -0.51,-3.101c-0.092,-0.57 -0.485,-1.024 -1.027,-1.194c-1.09,-0.351 -2.137,-0.788 -3.118,-1.3c-0.507,-0.265 -1.109,-0.222 -1.572,0.113c-0.769,0.555 -1.75,1.262 -2.566,1.843c-1.324,0.955 -3.113,0.869 -4.345,-0.213c-0.764,-0.68 -1.512,-1.423 -2.226,-2.214c-1.094,-1.244 -1.18,-3.037 -0.218,-4.37c0.583,-0.808 1.288,-1.783 1.832,-2.553c0.338,-0.468 0.381,-1.067 0.118,-1.571c-0.523,-1.021 -0.955,-2.07 -1.285,-3.125c-0.171,-0.545 -0.628,-0.94 -1.192,-1.031l-0.211,-0.034c-0.9,-0.146 -1.991,-0.323 -2.906,-0.478c-1.612,-0.26 -2.816,-1.586 -2.921,-3.222c-0.06,-1.022 -0.062,-2.076 -0.008,-3.14c0.106,-1.654 1.313,-2.982 2.936,-3.245c0.984,-0.159 2.171,-0.351 3.101,-0.51c0.57,-0.092 1.024,-0.485 1.194,-1.027c0.351,-1.09 0.788,-2.137 1.3,-3.118c0.265,-0.506 0.222,-1.109 -0.113,-1.572c-0.555,-0.769 -1.262,-1.75 -1.843,-2.566c-0.956,-1.324 -0.87,-3.113 0.213,-4.345c0.68,-0.764 1.423,-1.512 2.214,-2.226c1.244,-1.094 3.036,-1.181 4.37,-0.218c0.808,0.583 1.783,1.288 2.553,1.832c0.469,0.338 1.067,0.383 1.571,0.118c1.021,-0.523 2.07,-0.955 3.125,-1.285c0.545,-0.171 0.94,-0.628 1.031,-1.192l0.034,-0.211c0.146,-0.9 0.323,-1.991 0.478,-2.906c0.26,-1.612 1.586,-2.816 3.222,-2.921c1.022,-0.059 2.077,-0.062 3.14,-0.008c1.654,0.106 2.982,1.313 3.245,2.936v0c0.159,0.983 0.351,2.17 0.51,3.1c0.092,0.57 0.485,1.024 1.027,1.194c1.09,0.351 2.137,0.788 3.118,1.3c0.506,0.265 1.11,0.222 1.572,-0.113c0.769,-0.555 1.75,-1.262 2.566,-1.843c1.323,-0.957 3.112,-0.871 4.345,0.213c0.764,0.68 1.512,1.423 2.226,2.214c1.094,1.244 1.18,3.037 0.218,4.37c-0.583,0.808 -1.288,1.783 -1.832,2.553c-0.338,0.468 -0.381,1.067 -0.118,1.571c0.523,1.021 0.955,2.07 1.285,3.125c0.171,0.545 0.628,0.94 1.192,1.031l0.211,0.034c0.9,0.146 1.991,0.323 2.906,0.478c1.612,0.26 2.816,1.586 2.921,3.222c0.06,1.022 0.062,2.076 0.008,3.14c-0.106,1.654 -1.313,2.982 -2.936,3.245c-0.984,0.159 -2.171,0.351 -3.101,0.51c-0.57,0.092 -1.024,0.485 -1.194,1.027c-0.351,1.09 -0.788,2.137 -1.3,3.118c-0.265,0.506 -0.222,1.109 0.113,1.572c0.555,0.769 1.262,1.75 1.843,2.566c0.956,1.324 0.87,3.113 -0.213,4.345c-0.68,0.764 -1.423,1.512 -2.214,2.226c-1.245,1.093 -3.036,1.18 -4.37,0.218c-0.808,-0.583 -1.783,-1.288 -2.553,-1.832c-0.468,-0.337 -1.066,-0.382 -1.571,-0.118c-1.021,0.523 -2.07,0.955 -3.125,1.285c-0.545,0.171 -0.94,0.628 -1.031,1.192l-0.034,0.211c-0.146,0.9 -0.323,1.991 -0.478,2.906c-0.26,1.612 -1.586,2.816 -3.222,2.921c-0.537,0.032 -1.082,0.048 -1.634,0.048zM21.84,47.258c0.554,0 1.11,0.133 1.625,0.401c0.88,0.46 1.821,0.853 2.797,1.167c1.262,0.396 2.182,1.458 2.395,2.771c0.159,0.926 0.352,2.121 0.511,3.11c0.112,0.695 0.682,1.213 1.384,1.258c0.979,0.05 1.959,0.047 2.903,-0.008c0.693,-0.044 1.26,-0.559 1.372,-1.251c0.155,-0.917 0.331,-2.004 0.476,-2.899l0.034,-0.211c0.213,-1.315 1.135,-2.381 2.408,-2.78c0.947,-0.296 1.89,-0.684 2.803,-1.152c1.172,-0.612 2.575,-0.511 3.654,0.267c0.767,0.542 1.748,1.25 2.561,1.837c0.572,0.411 1.34,0.375 1.868,-0.09c0.727,-0.657 1.419,-1.352 2.047,-2.058c0.459,-0.522 0.496,-1.287 0.085,-1.854c-0.582,-0.818 -1.286,-1.795 -1.839,-2.56c-0.78,-1.081 -0.881,-2.487 -0.263,-3.669c0.46,-0.88 0.853,-1.821 1.167,-2.797c0.396,-1.262 1.458,-2.182 2.771,-2.395c0.926,-0.159 2.121,-0.352 3.11,-0.511c0.695,-0.112 1.213,-0.682 1.258,-1.384c0.049,-0.978 0.047,-1.959 -0.008,-2.903c-0.044,-0.693 -0.559,-1.26 -1.251,-1.372c-0.917,-0.155 -2.004,-0.331 -2.899,-0.476l-0.211,-0.034c-1.315,-0.213 -2.381,-1.135 -2.78,-2.408c-0.296,-0.947 -0.684,-1.89 -1.152,-2.803c-0.613,-1.172 -0.512,-2.575 0.267,-3.654c0.542,-0.767 1.25,-1.748 1.837,-2.561c0.412,-0.571 0.375,-1.34 -0.09,-1.868c-0.657,-0.727 -1.352,-1.419 -2.058,-2.047c-0.521,-0.458 -1.286,-0.496 -1.854,-0.085c-0.818,0.582 -1.795,1.286 -2.56,1.839c-1.082,0.779 -2.488,0.88 -3.669,0.263c-0.88,-0.46 -1.821,-0.853 -2.797,-1.167c-1.262,-0.396 -2.182,-1.458 -2.395,-2.771c-0.159,-0.926 -0.352,-2.121 -0.511,-3.11c-0.112,-0.695 -0.682,-1.213 -1.384,-1.258c-0.979,-0.049 -1.96,-0.047 -2.903,0.008c-0.693,0.044 -1.26,0.559 -1.372,1.251c-0.155,0.917 -0.331,2.004 -0.476,2.899l-0.034,0.211c-0.213,1.315 -1.135,2.381 -2.408,2.78c-0.947,0.296 -1.89,0.684 -2.803,1.152c-1.172,0.613 -2.576,0.512 -3.654,-0.267c-0.767,-0.542 -1.748,-1.25 -2.561,-1.837c-0.572,-0.412 -1.339,-0.375 -1.868,0.09c-0.727,0.657 -1.419,1.352 -2.047,2.058c-0.459,0.522 -0.496,1.287 -0.085,1.854c0.582,0.818 1.286,1.795 1.839,2.56c0.78,1.081 0.881,2.487 0.263,3.669c-0.46,0.88 -0.853,1.821 -1.167,2.797c-0.396,1.262 -1.458,2.182 -2.771,2.395c-0.926,0.159 -2.121,0.352 -3.11,0.511c-0.695,0.112 -1.213,0.682 -1.258,1.384c-0.049,0.978 -0.047,1.959 0.008,2.903c0.044,0.693 0.559,1.26 1.251,1.372c0.917,0.155 2.004,0.331 2.899,0.476l0.211,0.034c1.315,0.213 2.381,1.135 2.78,2.408c0.296,0.947 0.684,1.89 1.152,2.803c0.613,1.172 0.512,2.575 -0.267,3.654c-0.542,0.767 -1.25,1.748 -1.837,2.561c-0.412,0.571 -0.375,1.34 0.09,1.868c0.657,0.727 1.352,1.419 2.058,2.047c0.522,0.458 1.287,0.497 1.854,0.085c0.818,-0.582 1.795,-1.286 2.56,-1.839c0.61,-0.441 1.325,-0.664 2.044,-0.664z" fill="url(#color-2_52146_gr2)" fill-rule="nonzero"></path><path d="M32,48c-9.374,0 -17,-7.626 -17,-17c0,-9.374 7.626,-17 17,-17c9.374,0 17,7.626 17,17c0,9.374 -7.626,17 -17,17zM32,16c-8.271,0 -15,6.729 -15,15c0,8.271 6.729,15 15,15c8.271,0 15,-6.729 15,-15c0,-8.271 -6.729,-15 -15,-15z" fill="url(#color-3_52146_gr3)" fill-rule="nonzero"></path><g fill="url(#color-4_52146_gr4)" fill-rule="nonzero"><path d="M32,43c-6.617,0 -12,-5.383 -12,-12c0,-6.617 5.383,-12 12,-12c6.617,0 12,5.383 12,12c0,6.617 -5.383,12 -12,12zM32,21c-5.514,0 -10,4.486 -10,10c0,5.514 4.486,10 10,10c5.514,0 10,-4.486 10,-10c0,-5.514 -4.486,-10 -10,-10z"></path></g></g></g>
</svg>