<svg xmlns="http://www.w3.org/2000/svg" x="0px" y="0px"
width="100" height="100"
viewBox="0,0,256,256">
<defs><linearGradient x1="46" y1="19.783" x2="46" y2="27.751" gradientUnits="userSpaceOnUse" id="color-1_SlSlOQaMfzZO_gr1"><stop offset="0" stop-color="#70dfff"></stop><stop offset="1" stop-color="#70afff"></stop></linearGradient><linearGradient x1="33.5" y1="5.261" x2="33.5" y2="58.127" gradientUnits="userSpaceOnUse" id="color-2_SlSlOQaMfzZO_gr2"><stop offset="0" stop-color="#00c6ff"></stop><stop offset="1" stop-color="#0072ff"></stop></linearGradient><linearGradient x1="32.071" y1="5.262" x2="32.071" y2="58.127" gradientUnits="userSpaceOnUse" id="color-3_SlSlOQaMfzZO_gr3"><stop offset="0" stop-color="#00c6ff"></stop><stop offset="1" stop-color="#0072ff"></stop></linearGradient><linearGradient x1="32.5" y1="10.978" x2="32.5" y2="20.927" gradientUnits="userSpaceOnUse" id="color-4_SlSlOQaMfzZO_gr4"><stop offset="0" stop-color="#70dfff"></stop><stop offset="1" stop-color="#70afff"></stop></linearGradient><linearGradient x1="20.5" y1="16.652" x2="20.5" y2="25.176" gradientUnits="userSpaceOnUse" id="color-5_SlSlOQaMfzZO_gr5"><stop offset="0" stop-color="#70dfff"></stop><stop offset="1" stop-color="#70afff"></stop></linearGradient><linearGradient x1="15" y1="27.87" x2="15" y2="36.52" gradientUnits="userSpaceOnUse" id="color-6_SlSlOQaMfzZO_gr6"><stop offset="0" stop-color="#70dfff"></stop><stop offset="1" stop-color="#70afff"></stop></linearGradient><linearGradient x1="46" y1="5.261" x2="46" y2="58.127" gradientUnits="userSpaceOnUse" id="color-7_SlSlOQaMfzZO_gr7"><stop offset="0" stop-color="#00c6ff"></stop><stop offset="1" stop-color="#0072ff"></stop></linearGradient><linearGradient x1="46" y1="5.261" x2="46" y2="58.127" gradientUnits="userSpaceOnUse" id="color-8_SlSlOQaMfzZO_gr8"><stop offset="0" stop-color="#00c6ff"></stop><stop offset="1" stop-color="#0072ff"></stop></linearGradient></defs><g fill="none" fill-rule="nonzero" stroke="none" stroke-width="1" stroke-linecap="butt" stroke-linejoin="miter" stroke-miterlimit="10" stroke-dasharray="" stroke-dashoffset="0" font-family="none" font-weight="none" font-size="none" text-anchor="none" style="mix-blend-mode: normal"><g transform="scale(4,4)"><path d="M53,21.5c0,-0.828 -0.672,-1.5 -1.5,-1.5h-11c-0.828,0 -1.5,0.672 -1.5,1.5c0,0.27 0.077,0.519 0.201,0.738l-0.007,0.012l2.806,5.75l4,1l4,-1l2.793,-5.75l-0.001,-0.001c0.129,-0.221 0.208,-0.475 0.208,-0.749z" fill="url(#color-1_SlSlOQaMfzZO_gr1)"></path><path d="M33.5,39c-2.481,0 -4.5,-2.019 -4.5,-4.5c0,-2.481 2.019,-4.5 4.5,-4.5c2.481,0 4.5,2.019 4.5,4.5c0,2.481 -2.019,4.5 -4.5,4.5zM33.5,32c-1.378,0 -2.5,1.121 -2.5,2.5c0,1.379 1.122,2.5 2.5,2.5c1.378,0 2.5,-1.121 2.5,-2.5c0,-1.379 -1.122,-2.5 -2.5,-2.5z" fill="url(#color-2_SlSlOQaMfzZO_gr2)"></path><path d="M52.02,12.11c-9.18,-9.18 -25.6,-7.7 -36.6,3.31c-7.61,7.61 -10.97,18.35 -8.57,27.38c0.65,2.44 2.5,4.29 4.94,4.95c2.43,0.65 4.94,-0.02 6.72,-1.8l4.08,-4.08c1,-1 2.61,-1.11 3.58,-0.23c0.52,0.46 0.81,1.1 0.83,1.79c0.02,0.7 -0.24,1.35 -0.73,1.84l-0.12,0.12c-2.29,2.29 -2.79,5.62 -1.25,8.48c1.28,2.4 3.64,3.8 6.25,3.8c0.48,0 0.98,-0.05 1.48,-0.15c3.51,-0.7 6.89,-2.06 10.01,-4c0.65,-0.4 1.3,-0.83 1.93,-1.28c-0.04,-0.72 -0.09,-1.53 -0.13,-2.43c-0.63,0.5 -1.27,0.97 -1.93,1.4c-3.19,2.14 -6.7,3.63 -10.27,4.35c-2.78,0.56 -4.74,-1.07 -5.58,-2.64c-0.84,-1.56 -1.11,-4.11 0.9,-6.12l0.12,-0.12c0.87,-0.87 1.35,-2.07 1.32,-3.3c-0.03,-1.24 -0.56,-2.39 -1.49,-3.23c-0.83,-0.75 -1.88,-1.11 -2.95,-1.11c-1.21,0 -2.44,0.47 -3.38,1.42l-4.08,4.08c-1.27,1.26 -3.06,1.74 -4.79,1.28c-1.74,-0.47 -3.06,-1.79 -3.53,-3.54c-2.22,-8.34 0.94,-18.33 8.05,-25.45c10.23,-10.22 25.38,-11.71 33.78,-3.31c4.04,4.04 5.94,9.76 5.34,16.11c-0.5,5.25 -2.65,10.41 -6.14,14.83c-0.65,0.83 -1.35,1.62 -2.1,2.39c-0.04,1.04 -0.09,2.02 -0.13,2.93c0.38,-0.34 0.76,-0.7 1.13,-1.07c0.33,-0.33 0.65,-0.67 0.97,-1.01c4.73,-5.14 7.65,-11.44 8.26,-17.89c0.65,-6.94 -1.45,-13.23 -5.92,-17.7z" fill="url(#color-3_SlSlOQaMfzZO_gr3)"></path><circle cx="32.5" cy="16" r="4" fill="url(#color-4_SlSlOQaMfzZO_gr4)"></circle><circle cx="20.5" cy="21" r="4" fill="url(#color-5_SlSlOQaMfzZO_gr5)"></circle><circle cx="15" cy="32" r="4" fill="url(#color-6_SlSlOQaMfzZO_gr6)"></circle><path d="M50,34h-8v-6h8zM44,32h4v-2h-4z" fill="url(#color-7_SlSlOQaMfzZO_gr7)"></path><path d="M42,32v2.25c0,6.69 0.29,12.92 0.51,16.96c0.04,0.64 0.07,1.22 0.1,1.74c0.01,0.2 0.02,0.39 0.03,0.57c0.06,1.21 0.11,2.1 0.11,2.48c0,1.6 1.52,3 3.25,3c1.73,0 3.25,-1.4 3.25,-3c0,-0.15 0.03,-0.68 0.08,-1.54c0.09,-1.5 0.22,-3.87 0.35,-6.76c0.04,-1.02 0.09,-2.1 0.13,-3.24c0.11,-3.12 0.19,-6.63 0.19,-10.21v-2.25zM47.58,49.78c-0.09,1.9 -0.19,3.47 -0.25,4.57c-0.05,0.92 -0.08,1.49 -0.08,1.65c0,0.49 -0.64,1 -1.25,1c-0.61,0 -1.25,-0.51 -1.25,-1c0,-0.5 -0.06,-1.56 -0.15,-3.16c-0.01,-0.19 -0.02,-0.39 -0.03,-0.6c-0.04,-0.72 -0.09,-1.53 -0.13,-2.43c-0.21,-3.99 -0.44,-9.6 -0.44,-15.56v-0.25h4v0.25c0,4.52 -0.13,8.93 -0.29,12.6c-0.04,1.04 -0.09,2.02 -0.13,2.93z" fill="url(#color-8_SlSlOQaMfzZO_gr8)"></path></g></g>
</svg>