<svg enable-background="new 0 0 224.9 161.7" height="162" viewBox="0 0 224.9 161.7" width="225" xmlns="http://www.w3.org/2000/svg"><path d="m57.4 133.8 138 24.4c5.8 1 11.2-2.8 12.3-8.6l13.7-77.5c1-5.8-2.8-11.2-8.6-12.3l-138-24.4c-5.8-1-11.2 2.8-12.3 8.6l-13.7 77.5c-1 5.8 2.8 11.3 8.6 12.3z" fill="#eacaac"/><path d="m50.7 110.9-1.9 10.6c-1 5.8 2.8 11.2 8.6 12.3l16 2.8 77.3-41.9 32.1-17.4 31.6-17.1c-.5-.2-1-.3-1.6-.4l-51.2-9-31.8 17.2-32 17.4z" fill="#ffe3c3"/><path d="m126.5.3h22.7v161.3h-22.7z" fill="#403838" transform="matrix(.1739 -.9848 .9848 .1739 34.1474 202.6317)"/><path d="m97.8 85.4 52.9 9.4 32-17.4-52.9-9.4z" fill="#494242"/><circle cx="167" cy="128.6" fill="#f8a036" r="12.8"/><g fill="#ffdc83"><path d="m175.1 141c1.7 1.6 4 2.8 6.5 3.2 7 1.2 13.6-3.4 14.9-10.4 1.2-7-3.4-13.6-10.4-14.9-2.5-.4-5-.1-7.2.8 3.1 2.9 4.7 7.2 3.9 11.6-.8 4.5-3.8 8-7.7 9.7z"/><ellipse cx="42.3" cy="54.1" rx="26.3" ry="39.9" transform="matrix(.6091 -.7931 .7931 .6091 -26.4118 54.7075)"/><path d="m79.6 67.8c-.9 3.2-2.5 6.2-4.7 8.8l-9.7 4.1z"/></g><ellipse cx="44.8" cy="49.9" fill="#f8a036" rx="24.3" ry="39.5" transform="matrix(.4878 -.873 .873 .4878 -20.6015 64.7178)"/><path d="m79.3 69.3c-4-11-11.7-26.8-27.4-34.9-19.5-10.1-41-2.8-41.2-4.2-.2-1.5 14-20.5 45.8-2 35 20.2 24.1 39.1 22.8 41.1z" fill="#ef8d22"/><ellipse cx="46.9" cy="50.6" fill="#ffdc83" rx="18.6" ry="29" transform="matrix(.4383 -.8988 .8988 .4383 -19.0976 70.5893)"/><path d="m43.9 30.2c4.1 3.6 8.5 8.6 13.1 14.4 5.4 6.8 9.9 14.3 13.4 22.3 2.4-2.3 3.9-5.4 4.1-8.7 1.4-13.2-16.7-23.3-18-24-5-2.6-12.7-4.1-12.6-4z" fill="#efc15b"/><path d="m120.3 25.3c1.4 12.5-12.1 25.3-26 27.7-14.3 2.5-30.2-5.9-33.9-17.2-.6-1.7-.8-3.6-.9-5.4.6-1.5 8.2-18.6 26.8-22.4 14.7-3 26 4.5 28.2 5.9 2.4 2.5 5.2 6.4 5.8 11.4z" fill="#ffdc83"/><ellipse cx="88.6" cy="26" fill="#f8a036" rx="29.4" ry="22" transform="matrix(.9849 -.1732 .1732 .9849 -3.1655 15.747)"/><path d="m110.9 23.4c.7 7.4-9.9 13.5-22 14.6s-22.4-4.1-23.1-11.5c-.7-7.5 8.6-14.4 20.7-15.5s23.7 5 24.4 12.4z" fill="#ffdc83"/></svg>