<svg xmlns="http://www.w3.org/2000/svg" x="0px" y="0px"
width="100" height="100"
viewBox="0,0,256,256">
<defs><linearGradient x1="32" y1="24" x2="32" y2="47.001" gradientUnits="userSpaceOnUse" id="color-1_46129_gr1"><stop offset="0" stop-color="#70dfff"></stop><stop offset="1" stop-color="#70afff"></stop></linearGradient><linearGradient x1="32" y1="4.5" x2="32" y2="60.064" gradientUnits="userSpaceOnUse" id="color-2_46129_gr2"><stop offset="0" stop-color="#00c6ff"></stop><stop offset="1" stop-color="#0072ff"></stop></linearGradient><linearGradient x1="32" y1="4.5" x2="32" y2="60.064" gradientUnits="userSpaceOnUse" id="color-3_46129_gr3"><stop offset="0" stop-color="#00c6ff"></stop><stop offset="1" stop-color="#0072ff"></stop></linearGradient></defs><g fill="none" fill-rule="nonzero" stroke="none" stroke-width="1" stroke-linecap="butt" stroke-linejoin="miter" stroke-miterlimit="10" stroke-dasharray="" stroke-dashoffset="0" font-family="none" font-weight="none" font-size="none" text-anchor="none" style="mix-blend-mode: normal"><g transform="scale(4,4)"><path d="M29,28h9v-2h-5v-2h-2v2h-2c-1.654,0 -3,1.346 -3,3v4c0,1.654 1.346,3 3,3h6c0.552,0 1,0.448 1,1v4c0,0.552 -0.448,1 -1,1h-9v2h5v2h2v-2h2c1.654,0 3,-1.346 3,-3v-4c0,-1.654 -1.346,-3 -3,-3h-6c-0.552,0 -1,-0.448 -1,-1v-4c0,-0.552 0.448,-1 1,-1z" fill="url(#color-1_46129_gr1)"></path><path d="M51,16.056v-0.056h-0.04c-1.604,-2.333 -3.627,-4.356 -5.96,-5.96v-0.04h-0.055c-3.691,-2.522 -8.148,-4 -12.945,-4c-7.861,0 -14.811,3.966 -18.96,10h-0.04v0.056c-2.522,3.69 -4,8.147 -4,12.944v6c0,12.683 10.317,23 23,23c12.683,0 23,-10.317 23,-23v-6c0,-4.797 -1.478,-9.254 -4,-12.944zM49,16.721v2.804c-1.208,-1.326 -2.57,-2.509 -4.055,-3.524h0.055v-3.46c1.519,1.201 2.862,2.609 4,4.18zM21,14.806v-3.661c1.253,-0.775 2.591,-1.42 4,-1.92v3.868c-1.396,0.447 -2.734,1.021 -4,1.713zM27,8.627c1.292,-0.317 2.628,-0.511 4,-0.576v3.975c-1.368,0.059 -2.704,0.24 -4,0.528zM33,8.051c1.372,0.065 2.708,0.259 4,0.576v3.927c-1.296,-0.289 -2.632,-0.47 -4,-0.528zM39,9.225c1.409,0.5 2.747,1.146 4,1.92v3.661c-1.266,-0.692 -2.604,-1.267 -4,-1.713zM19,12.54v3.5c-1.464,1.006 -2.807,2.175 -4,3.485v-2.804c1.138,-1.571 2.481,-2.979 4,-4.181zM13,20.114v1.886h0.04c-0.59,0.857 -1.12,1.757 -1.591,2.692c0.335,-1.603 0.871,-3.13 1.551,-4.578zM32,56c-11.579,0 -21,-9.421 -21,-21c0,-11.579 9.421,-21 21,-21c11.579,0 21,9.421 21,21c0,11.579 -9.421,21 -21,21zM50.96,22h0.04v-1.886c0.68,1.448 1.216,2.975 1.552,4.578c-0.471,-0.935 -1.002,-1.835 -1.592,-2.692z" fill="url(#color-2_46129_gr2)"></path><path d="M32,16c-10.477,0 -19,8.523 -19,19c0,10.477 8.523,19 19,19c10.477,0 19,-8.523 19,-19c0,-10.477 -8.523,-19 -19,-19zM32,52c-9.374,0 -17,-7.626 -17,-17c0,-9.374 7.626,-17 17,-17c9.374,0 17,7.626 17,17c0,9.374 -7.626,17 -17,17z" fill="url(#color-3_46129_gr3)"></path></g></g>
</svg>