<svg xmlns="http://www.w3.org/2000/svg" x="0px" y="0px"
width="100" height="100"
viewBox="0,0,256,256">
<defs><linearGradient x1="32" y1="25.255" x2="32" y2="40.321" gradientUnits="userSpaceOnUse" id="color-1_fNhK69jcCzI2_gr1"><stop offset="0" stop-color="#70dfff"></stop><stop offset="1" stop-color="#70afff"></stop></linearGradient><linearGradient x1="23" y1="12.833" x2="23" y2="53.943" gradientUnits="userSpaceOnUse" id="color-2_fNhK69jcCzI2_gr2"><stop offset="0" stop-color="#00c6ff"></stop><stop offset="1" stop-color="#0072ff"></stop></linearGradient><linearGradient x1="48.5" y1="12.833" x2="48.5" y2="53.943" gradientUnits="userSpaceOnUse" id="color-3_fNhK69jcCzI2_gr3"><stop offset="0" stop-color="#00c6ff"></stop><stop offset="1" stop-color="#0072ff"></stop></linearGradient><linearGradient x1="32" y1="12" x2="32" y2="55.334" gradientUnits="userSpaceOnUse" id="color-4_fNhK69jcCzI2_gr4"><stop offset="0" stop-color="#00c6ff"></stop><stop offset="1" stop-color="#0072ff"></stop></linearGradient></defs><g fill="none" fill-rule="nonzero" stroke="none" stroke-width="1" stroke-linecap="butt" stroke-linejoin="miter" stroke-miterlimit="10" stroke-dasharray="" stroke-dashoffset="0" font-family="none" font-weight="none" font-size="none" text-anchor="none" style="mix-blend-mode: normal"><g transform="scale(4,4)"><path d="M38.823,33.507l-5.424,7.763c-0.68,0.972 -2.119,0.971 -2.799,-0.002l-5.424,-7.76c-0.432,-0.618 -0.021,-1.508 0.7,-1.508h2.124c0.552,0 1,-0.434 1,-0.987v-3.014c0,-0.551 0.446,-0.999 0.997,-0.999h4.006c0.551,0 0.997,0.448 0.997,0.999v3.014c0,0.553 0.448,0.987 1,0.987h2.124c0.72,0 1.132,0.889 0.699,1.507z" fill="url(#color-1_fNhK69jcCzI2_gr1)"></path><path d="M19,25h2c0,-3 2.691,-5.999 6,-5.999v-2c-4.411,0 -8,3.999 -8,7.999z" fill="url(#color-2_fNhK69jcCzI2_gr2)"></path><path d="M52,30c0,-4 -3.141,-6.999 -7,-6.999v2c2.757,0 5,1.999 5,4.999z" fill="url(#color-3_fNhK69jcCzI2_gr3)"></path><path d="M55.106,34.334c0.593,-1.37 0.894,-2.825 0.894,-4.333c0,-6.065 -4.935,-11 -11,-11c-2.424,0 -4.721,0.777 -6.618,2.218c-1.601,-4.85 -6.147,-8.218 -11.382,-8.218c-6.617,0 -12,5.383 -12,12c0,1.543 0.062,2.999 0.53,3.999h-0.53c-4.963,0 -9,4.037 -9,9c0,4.303 3.037,7.906 7.08,8.789c0.381,2.381 2.433,4.211 4.92,4.211h21h6h2c2.437,0 4.466,-1.754 4.906,-4.065c3.432,-0.447 6.094,-3.382 6.094,-6.934c0,-2.267 -1.088,-4.361 -2.894,-5.667zM47,49h-2h-6h-21c-1.302,0 -2.402,-1 -2.816,-2h34.632c-0.414,1 -1.514,2 -2.816,2zM51,45h-36c-3.859,0 -7,-3.141 -7,-7c0,-3.859 3.141,-7 7,-7h3.54l-0.627,-1.407c-0.83,-1.866 -0.913,-2.786 -0.913,-4.592c0,-5.514 4.486,-10 10,-10c4.844,0 8.979,3.46 9.833,8.228l0.345,1.924l1.358,-1.404c1.714,-1.772 4.01,-2.748 6.464,-2.748c4.963,0 9,4.037 9,9c0,1.368 -0.303,2.683 -0.884,3.877l-0.656,1.238l0.882,0.469c1.639,0.871 2.658,2.563 2.658,4.416c0,2.757 -2.243,4.999 -5,4.999z" fill="url(#color-4_fNhK69jcCzI2_gr4)"></path></g></g>
</svg>