<svg xmlns="http://www.w3.org/2000/svg" x="0px" y="0px"
width="100" height="100"
viewBox="0,0,256,256">
<defs><linearGradient x1="24" y1="22.66" x2="24" y2="41.761" gradientUnits="userSpaceOnUse" id="color-1_HgHbirBjQ6Tb_gr1"><stop offset="0" stop-color="#70dfff"></stop><stop offset="1" stop-color="#70afff"></stop></linearGradient><linearGradient x1="40.5" y1="22.66" x2="40.5" y2="41.761" gradientUnits="userSpaceOnUse" id="color-2_HgHbirBjQ6Tb_gr2"><stop offset="0" stop-color="#70dfff"></stop><stop offset="1" stop-color="#70afff"></stop></linearGradient><linearGradient x1="32" y1="7.894" x2="32" y2="55.894" gradientUnits="userSpaceOnUse" id="color-3_HgHbirBjQ6Tb_gr3"><stop offset="0" stop-color="#00c6ff"></stop><stop offset="1" stop-color="#0072ff"></stop></linearGradient></defs><g fill="none" fill-rule="nonzero" stroke="none" stroke-width="1" stroke-linecap="butt" stroke-linejoin="miter" stroke-miterlimit="10" stroke-dasharray="" stroke-dashoffset="0" font-family="none" font-weight="none" font-size="none" text-anchor="none" style="mix-blend-mode: normal"><g transform="scale(4,4)"><path d="M29,22h-2c-0.552,0 -1,0.448 -1,1v7h-4v-7c0,-0.552 -0.448,-1 -1,-1h-2c-0.552,0 -1,0.448 -1,1v18c0,0.552 0.448,1 1,1h2c0.552,0 1,-0.448 1,-1v-7h4v7c0,0.552 0.448,1 1,1h2c0.552,0 1,-0.448 1,-1v-18c0,-0.552 -0.448,-1 -1,-1z" fill="url(#color-1_HgHbirBjQ6Tb_gr1)"></path><path d="M43,22h-6h-2c-0.552,0 -1,0.448 -1,1v18c0,0.552 0.448,1 1,1h2h6c2.209,0 4,-1.791 4,-4v-12c0,-2.209 -1.791,-4 -4,-4zM43,38h-5v-12h5z" fill="url(#color-2_HgHbirBjQ6Tb_gr2)"></path><path d="M51,8h-38c-2.757,0 -5,2.243 -5,5v38c0,2.757 2.243,5 5,5h38c2.757,0 5,-2.243 5,-5v-38c0,-2.757 -2.243,-5 -5,-5zM54,51c0,1.654 -1.346,3 -3,3h-38c-1.654,0 -3,-1.346 -3,-3v-38c0,-1.654 1.346,-3 3,-3h38c1.654,0 3,1.346 3,3z" fill="url(#color-3_HgHbirBjQ6Tb_gr3)"></path></g></g>
</svg>