<svg xmlns="http://www.w3.org/2000/svg" x="0px" y="0px"
width="100" height="100"
viewBox="0,0,256,256">
<defs><linearGradient x1="31.908" y1="27.623" x2="32.096" y2="36.56" gradientUnits="userSpaceOnUse" id="color-1_48151_gr1"><stop offset="0" stop-color="#70dfff"></stop><stop offset="1" stop-color="#70afff"></stop></linearGradient><linearGradient x1="32" y1="5.333" x2="32" y2="59.007" gradientUnits="userSpaceOnUse" id="color-2_48151_gr2"><stop offset="0" stop-color="#00c6ff"></stop><stop offset="1" stop-color="#0072ff"></stop></linearGradient><linearGradient x1="36.646" y1="5.333" x2="36.646" y2="59.007" gradientUnits="userSpaceOnUse" id="color-3_48151_gr3"><stop offset="0" stop-color="#00c6ff"></stop><stop offset="1" stop-color="#0072ff"></stop></linearGradient><linearGradient x1="27.354" y1="5.333" x2="27.354" y2="59.007" gradientUnits="userSpaceOnUse" id="color-4_48151_gr4"><stop offset="0" stop-color="#00c6ff"></stop><stop offset="1" stop-color="#0072ff"></stop></linearGradient><linearGradient x1="32" y1="5.333" x2="32" y2="59.007" gradientUnits="userSpaceOnUse" id="color-5_48151_gr5"><stop offset="0" stop-color="#00c6ff"></stop><stop offset="1" stop-color="#0072ff"></stop></linearGradient></defs><g fill="none" fill-rule="nonzero" stroke="none" stroke-width="1" stroke-linecap="butt" stroke-linejoin="miter" stroke-miterlimit="10" stroke-dasharray="" stroke-dashoffset="0" font-family="none" font-weight="none" font-size="none" text-anchor="none" style="mix-blend-mode: normal"><g transform="scale(4,4)"><path d="M32,28c-2.20914,0 -4,1.79086 -4,4c0,2.20914 1.79086,4 4,4c2.20914,0 4,-1.79086 4,-4c0,-2.20914 -1.79086,-4 -4,-4z" fill="url(#color-1_48151_gr1)"></path><path d="M32,6c-14.336,0 -26,11.663 -26,26c0,14.337 11.664,26 26,26c14.336,0 26,-11.663 26,-26c0,-14.337 -11.664,-26 -26,-26zM32,56c-13.233,0 -24,-10.767 -24,-24c0,-13.233 10.767,-24 24,-24c13.233,0 24,10.767 24,24c0,13.233 -10.767,24 -24,24z" fill="url(#color-2_48151_gr2)"></path><path d="M53.697,31.93c-0.356,-0.582 -0.965,-0.93 -1.629,-0.93h-2.119c-0.523,-9.459 -8.361,-17 -17.949,-17c-4.796,0 -9.309,1.864 -12.706,5.251l1.412,1.416c3.02,-3.01 7.031,-4.667 11.294,-4.667c8.485,0 15.429,6.644 15.949,15h-2.018c-0.664,0 -1.273,0.348 -1.628,0.93c-0.373,0.61 -0.402,1.387 -0.036,2.093l3.05,4.954c0.342,0.632 0.983,1.023 1.683,1.023c0.715,0 1.368,-0.407 1.666,-0.995l3.105,-5.051c0.328,-0.638 0.299,-1.414 -0.074,-2.024zM49.001,37.899l-3.069,-4.899l6.098,-0.026z" fill="url(#color-3_48151_gr3)"></path><path d="M32,48c-8.485,0 -15.429,-6.644 -15.949,-15h2.018c0.664,0 1.273,-0.348 1.628,-0.93c0.373,-0.61 0.402,-1.387 0.036,-2.093l-3.029,-4.914c-0.336,-0.656 -0.989,-1.063 -1.704,-1.063c-0.701,0 -1.341,0.391 -1.683,1.023l-3.088,5.022c-0.328,0.638 -0.299,1.414 0.074,2.024c0.355,0.582 0.964,0.93 1.628,0.93h2.119c0.524,9.46 8.362,17.001 17.95,17.001c4.796,0 9.309,-1.864 12.706,-5.251l-1.412,-1.416c-3.02,3.01 -7.031,4.667 -11.294,4.667zM15,26.104l3.068,4.896l-6.098,0.026z" fill="url(#color-4_48151_gr4)"></path><path d="M37,32c0,-2.757 -2.243,-5 -5,-5c-2.757,0 -5,2.243 -5,5c0,2.757 2.243,5 5,5c2.757,0 5,-2.243 5,-5zM29,32c0,-1.654 1.346,-3 3,-3c1.654,0 3,1.346 3,3c0,1.654 -1.346,3 -3,3c-1.654,0 -3,-1.346 -3,-3z" fill="url(#color-5_48151_gr5)"></path></g></g>
</svg>