<svg xmlns="http://www.w3.org/2000/svg" x="0px" y="0px"
width="100" height="100"
viewBox="0,0,256,256">
<defs><linearGradient x1="28" y1="38.167" x2="28" y2="49.844" gradientUnits="userSpaceOnUse" id="color-1_44048_gr1"><stop offset="0" stop-color="#70dfff"></stop><stop offset="1" stop-color="#70afff"></stop></linearGradient><linearGradient x1="32" y1="10" x2="32" y2="56.363" gradientUnits="userSpaceOnUse" id="color-2_44048_gr2"><stop offset="0" stop-color="#00c6ff"></stop><stop offset="1" stop-color="#0072ff"></stop></linearGradient><linearGradient x1="49" y1="10" x2="49" y2="56.363" gradientUnits="userSpaceOnUse" id="color-3_44048_gr3"><stop offset="0" stop-color="#00c6ff"></stop><stop offset="1" stop-color="#0072ff"></stop></linearGradient></defs><g fill="none" fill-rule="nonzero" stroke="none" stroke-width="1" stroke-linecap="butt" stroke-linejoin="miter" stroke-miterlimit="10" stroke-dasharray="" stroke-dashoffset="0" font-family="none" font-weight="none" font-size="none" text-anchor="none" style="mix-blend-mode: normal"><g transform="scale(4,4)"><path d="M28,39c-2.76142,0 -5,2.23858 -5,5c0,2.76142 2.23858,5 5,5c2.76142,0 5,-2.23858 5,-5c0,-2.76142 -2.23858,-5 -5,-5z" fill="url(#color-1_44048_gr1)"></path><path d="M49,11c-6.617,0 -12,5.383 -12,12c0,2.949 1.074,5.649 2.845,7.741l-6.234,6.234c-1.54,-1.233 -3.489,-1.975 -5.611,-1.975c-2.122,0 -4.071,0.742 -5.611,1.975l-5.077,-5.077c1.054,-1.356 1.688,-3.052 1.688,-4.898c0,-4.411 -3.589,-8 -8,-8c-4.411,0 -8,3.589 -8,8c0,4.411 3.589,8 8,8c1.846,0 3.542,-0.634 4.897,-1.688l5.077,5.077c-1.232,1.54 -1.974,3.489 -1.974,5.611c0,4.963 4.037,9 9,9c4.963,0 9,-4.037 9,-9c0,-2.122 -0.742,-4.071 -1.975,-5.611l6.234,-6.234c2.092,1.771 4.792,2.845 7.741,2.845c6.617,0 12,-5.383 12,-12c0,-6.617 -5.383,-12 -12,-12zM11,33c-3.309,0 -6,-2.691 -6,-6c0,-3.309 2.691,-6 6,-6c3.309,0 6,2.691 6,6c0,3.309 -2.691,6 -6,6zM28,51c-3.859,0 -7,-3.141 -7,-7c0,-3.859 3.141,-7 7,-7c3.859,0 7,3.141 7,7c0,3.859 -3.141,7 -7,7zM49,33c-5.514,0 -10,-4.486 -10,-10c0,-5.514 4.486,-10 10,-10c5.514,0 10,4.486 10,10c0,5.514 -4.486,10 -10,10z" fill="url(#color-2_44048_gr2)"></path><path d="M49,15c-4.411,0 -8,3.589 -8,8c0,4.411 3.589,8 8,8c4.411,0 8,-3.589 8,-8c0,-4.411 -3.589,-8 -8,-8zM49,29c-3.309,0 -6,-2.691 -6,-6c0,-3.309 2.691,-6 6,-6c3.309,0 6,2.691 6,6c0,3.309 -2.691,6 -6,6z" fill="url(#color-3_44048_gr3)"></path></g></g>
</svg>