<svg xmlns="http://www.w3.org/2000/svg" x="0px" y="0px"
width="100" height="100"
viewBox="0,0,256,256">
<defs><linearGradient x1="37" y1="30.5" x2="37" y2="35.699" gradientUnits="userSpaceOnUse" id="color-1_43964_gr1"><stop offset="0" stop-color="#8ab4ff"></stop><stop offset="1" stop-color="#e492ff"></stop></linearGradient><linearGradient x1="27" y1="30.5" x2="27" y2="35.699" gradientUnits="userSpaceOnUse" id="color-2_43964_gr2"><stop offset="0" stop-color="#8ab4ff"></stop><stop offset="1" stop-color="#e492ff"></stop></linearGradient><linearGradient x1="32" y1="38" x2="32" y2="42.257" gradientUnits="userSpaceOnUse" id="color-3_43964_gr3"><stop offset="0" stop-color="#8ab4ff"></stop><stop offset="1" stop-color="#e492ff"></stop></linearGradient><linearGradient x1="32" y1="5.5" x2="32" y2="58.68" gradientUnits="userSpaceOnUse" id="color-4_43964_gr4"><stop offset="0" stop-color="#1a6dff"></stop><stop offset="1" stop-color="#c822ff"></stop></linearGradient><linearGradient x1="32" y1="5.5" x2="32" y2="58.68" gradientUnits="userSpaceOnUse" id="color-5_43964_gr5"><stop offset="0" stop-color="#1a6dff"></stop><stop offset="1" stop-color="#c822ff"></stop></linearGradient></defs><g fill="none" fill-rule="nonzero" stroke="none" stroke-width="1" stroke-linecap="butt" stroke-linejoin="miter" stroke-miterlimit="10" stroke-dasharray="" stroke-dashoffset="0" font-family="none" font-weight="none" font-size="none" text-anchor="none" style="mix-blend-mode: normal"><g transform="scale(4,4)"><path d="M37,30.5c-1.38071,0 -2.5,1.11929 -2.5,2.5c0,1.38071 1.11929,2.5 2.5,2.5c1.38071,0 2.5,-1.11929 2.5,-2.5c0,-1.38071 -1.11929,-2.5 -2.5,-2.5z" fill="url(#color-1_43964_gr1)"></path><path d="M27,30.5c-1.38071,0 -2.5,1.11929 -2.5,2.5c0,1.38071 1.11929,2.5 2.5,2.5c1.38071,0 2.5,-1.11929 2.5,-2.5c0,-1.38071 -1.11929,-2.5 -2.5,-2.5z" fill="url(#color-2_43964_gr2)"></path><path d="M28,38c0,2.209 1.791,4 4,4c2.209,0 4,-1.791 4,-4z" fill="url(#color-3_43964_gr3)"></path><path d="M32,50c-1.10457,0 -2,0.89543 -2,2c0,1.10457 0.89543,2 2,2c1.10457,0 2,-0.89543 2,-2c0,-1.10457 -0.89543,-2 -2,-2z" fill="url(#color-4_43964_gr4)"></path><path d="M44.802,39.644c0.373,-0.842 0.665,-1.725 0.866,-2.644h1.332c2.757,0 5,-2.243 5,-5c0,-2.415 -1.721,-4.434 -4,-4.899v-3.101c0,-7.796 -5.608,-14.299 -13,-15.708v-0.293c0,-1.103 -0.896,-1.999 -1.999,-1.999h-2.002c-1.103,0 -1.999,0.896 -1.999,1.999v0.295c-4.91,0.936 -9.151,4.132 -11.379,8.706h-1.621c-2.206,0 -4,1.794 -4,4c0,2.206 1.794,4 4,4v2.101c-2.279,0.465 -4,2.484 -4,4.899c0,2.757 2.243,5 5,5h1.332c0.202,0.918 0.494,1.802 0.866,2.644c-4.58,3.815 -7.198,9.371 -7.198,15.356v3h40v-3c0,-5.985 -2.618,-11.541 -7.198,-15.356zM20,34v-5h1c1.654,0 3,-1.346 3,-3v-1h7c1.902,0 3.626,-0.765 4.889,-2h3.111c0.552,0 1,0.448 1,1v2c0,1.654 1.346,3 3,3h1v5c0,6.617 -5.383,12 -12,12c-6.617,0 -12,-5.383 -12,-12zM50,32c0,1.654 -1.346,3 -3,3h-1v-1v-1h1c0.553,0 1,-0.447 1,-1c0,-0.553 -0.447,-1 -1,-1h-1v-2h1c1.654,0 3,1.346 3,3zM32,10c7.72,0 14,6.28 14,14v3h-1h-1h-1c-0.552,0 -1,-0.448 -1,-1v-2c0,-1.654 -1.346,-3 -3,-3h-1.685c0.435,-0.911 0.685,-1.926 0.685,-3v-1h-18.118c2.483,-4.295 7.079,-7 12.118,-7zM14,21c0,-1.103 0.897,-2 2,-2h19.899c-0.465,2.279 -2.484,4 -4.899,4h-15c-1.103,0 -2,-0.897 -2,-2zM22,25v1c0,0.552 -0.448,1 -1,1h-1h-1h-1v-2zM18,35h-1c-1.654,0 -3,-1.346 -3,-3c0,-1.654 1.346,-3 3,-3h1v2h-1c-0.553,0 -1,0.447 -1,1c0,0.553 0.447,1 1,1h1v1zM50,56h-6v-2h-2v2h-20v-2h-2v2h-6v-1c0,-5.25 2.233,-10.136 6.162,-13.56c2.481,3.934 6.854,6.56 11.838,6.56c4.984,0 9.357,-2.626 11.838,-6.56c3.929,3.424 6.162,8.31 6.162,13.56z" fill="url(#color-5_43964_gr5)"></path></g></g>
</svg>